<svg width="540" height="830" viewBox="0 0 540 830" fill="none" xmlns="http://www.w3.org/2000/svg">
<rect width="539.466" height="829.137" fill="#2D3139"/>
<circle cx="295.476" cy="252.046" r="134.661" fill="#3A7D7A"/>
<circle cx="26.5073" cy="26.5073" r="26.5073" transform="matrix(1 0 0 -1 281.386 261.109)" fill="#2D3139"/>
<path d="M286.832 200.539C308.733 186.505 341.596 185.958 366.544 191.357C430.637 202.39 475.126 257.233 486.848 318.939C490.275 336.967 489.541 356.32 489.541 374.618L489.529 436.553L489.537 559.609C489.537 568.962 489.589 578.447 489.622 587.943H277.916L277.92 525.213L277.886 479.32C277.879 471.332 277.805 463.263 277.901 455.321C278.279 423.937 286.087 395.343 302.684 368.598C313.888 350.544 339.953 311.279 330.905 289.499C328.847 284.417 324.811 280.389 319.725 278.34C313.5 275.868 306.806 276.362 300.279 276.335C273.017 276.221 250.481 282.379 225.511 293.055C156.569 322.534 97.2922 370.325 62.6412 437.707C57.1548 448.377 53.5934 456.946 49.0933 467.997C50.398 450.111 59.0785 426.97 66.34 410.752C99.0569 337.685 165.569 285.793 235.776 251.06C241.256 248.349 246.818 245.769 251.816 242.224C259.144 237.167 261.336 229.669 265.61 222.329C270.855 213.484 278.129 206.016 286.832 200.539ZM326.131 226.242C319.553 226.295 307.816 225.878 301.866 226.432C295.294 228.832 290.729 236.228 285.711 241.49C290.968 241.514 305.275 241.877 309.742 241.107C316.872 237.324 320.719 232.22 326.131 226.242Z" fill="#F9F8F4"/>
<path d="M366.544 191.357C430.638 202.39 475.127 257.233 486.848 318.939C490.276 336.967 489.542 356.32 489.542 374.618L489.529 436.553L489.538 559.609C489.538 568.962 489.589 578.447 489.622 587.943H441.647C427.823 564.434 414.229 540.794 400.865 517.021C373.89 468.396 348.081 423.033 357.852 365.177C363.646 330.866 381.758 306.903 386.452 272.345C390.308 243.951 383.894 214.357 366.544 191.357Z" fill="#8B72A7"/>
<path d="M81.9329 623.176H74.3809C68.0662 623.261 62.6049 624.84 57.9969 627.912C53.3889 630.898 50.9996 636.317 50.8289 644.168H49.1649V621.64H127.501V644.168H125.837C125.666 636.402 123.064 630.984 118.029 627.912C113.08 624.84 107.789 623.261 102.157 623.176H94.6049V699.336C94.6049 703.261 95.4156 706.034 97.0369 707.656C98.6582 709.277 100.962 710.088 103.949 710.088V711.752H72.7169V710.088C75.7036 710.088 77.9649 709.277 79.5009 707.656C81.1222 706.034 81.9329 703.261 81.9329 699.336V623.176ZM213.049 623.176C211.001 623.602 209.55 624.285 208.697 625.224C207.844 626.077 207.289 627.485 207.033 629.448C206.862 631.41 206.777 634.696 206.777 639.304V694.344C206.777 698.781 206.82 701.853 206.905 703.56C207.076 705.181 207.588 706.546 208.441 707.656C209.38 708.68 210.916 709.49 213.049 710.088V711.752H190.393V710.088C191.588 709.661 192.441 708.978 192.953 708.04C193.465 707.016 193.764 705.522 193.849 703.56C194.02 701.597 194.105 698.525 194.105 694.344V669.64H159.033V694.344C159.033 699.122 159.076 702.45 159.161 704.328C159.332 706.205 159.63 707.528 160.057 708.296C160.569 709.064 161.465 709.661 162.745 710.088V711.752H139.961V710.088C142.265 709.49 143.844 708.765 144.697 707.912C145.55 707.058 146.02 705.821 146.105 704.2C146.276 702.578 146.361 699.293 146.361 694.344V639.304C146.361 634.952 146.233 631.794 145.977 629.832C145.806 627.869 145.252 626.376 144.313 625.352C143.46 624.242 142.009 623.517 139.961 623.176V621.64H162.745V623.176C161.55 623.602 160.697 624.285 160.185 625.224C159.673 626.077 159.332 627.485 159.161 629.448C159.076 631.41 159.033 634.696 159.033 639.304V667.336H194.105V639.304C194.105 634.696 194.02 631.41 193.849 629.448C193.764 627.485 193.465 626.077 192.953 625.224C192.441 624.285 191.588 623.602 190.393 623.176V621.64H213.049V623.176ZM242.501 667.336C242.501 682.013 244.378 692.68 248.133 699.336C251.973 705.992 257.392 709.832 264.389 710.856V712.648C256.453 711.88 249.754 709.448 244.293 705.352C238.832 701.256 234.736 695.922 232.005 689.352C229.274 682.781 227.909 675.442 227.909 667.336C227.909 659.229 229.274 651.805 232.005 645.064C234.736 638.322 238.832 632.818 244.293 628.552C249.754 624.2 256.453 621.597 264.389 620.744V622.664C257.477 623.773 252.101 627.826 248.261 634.824C244.421 641.736 242.501 652.573 242.501 667.336ZM311.109 667.336C311.109 675.442 309.744 682.781 307.013 689.352C304.282 695.922 300.144 701.256 294.597 705.352C289.136 709.448 282.394 711.88 274.373 712.648V710.856C281.37 709.832 286.746 706.034 290.501 699.464C294.256 692.808 296.133 682.098 296.133 667.336C296.133 652.573 294.213 641.736 290.373 634.824C286.618 627.912 281.285 623.816 274.373 622.536V620.744C282.309 621.512 289.05 624.072 294.597 628.424C300.144 632.69 304.282 638.237 307.013 645.064C309.744 651.805 311.109 659.229 311.109 667.336ZM358.508 623.176H350.956C344.641 623.261 339.18 624.84 334.572 627.912C329.964 630.898 327.575 636.317 327.404 644.168H325.74V621.64H404.076V644.168H402.412C402.241 636.402 399.639 630.984 394.604 627.912C389.655 624.84 384.364 623.261 378.732 623.176H371.18V699.336C371.18 703.261 371.991 706.034 373.612 707.656C375.233 709.277 377.537 710.088 380.524 710.088V711.752H349.292V710.088C352.279 710.088 354.54 709.277 356.076 707.656C357.697 706.034 358.508 703.261 358.508 699.336V623.176ZM489.624 623.176C487.576 623.602 486.125 624.285 485.272 625.224C484.419 626.077 483.864 627.485 483.608 629.448C483.437 631.41 483.352 634.696 483.352 639.304V694.344C483.352 698.781 483.395 701.853 483.48 703.56C483.651 705.181 484.163 706.546 485.016 707.656C485.955 708.68 487.491 709.49 489.624 710.088V711.752H466.968V710.088C468.163 709.661 469.016 708.978 469.528 708.04C470.04 707.016 470.339 705.522 470.424 703.56C470.595 701.597 470.68 698.525 470.68 694.344V669.64H435.608V694.344C435.608 699.122 435.651 702.45 435.736 704.328C435.907 706.205 436.205 707.528 436.632 708.296C437.144 709.064 438.04 709.661 439.32 710.088V711.752H416.536V710.088C418.84 709.49 420.419 708.765 421.272 707.912C422.125 707.058 422.595 705.821 422.68 704.2C422.851 702.578 422.936 699.293 422.936 694.344V639.304C422.936 634.952 422.808 631.794 422.552 629.832C422.381 627.869 421.827 626.376 420.888 625.352C420.035 624.242 418.584 623.517 416.536 623.176V621.64H439.32V623.176C438.125 623.602 437.272 624.285 436.76 625.224C436.248 626.077 435.907 627.485 435.736 629.448C435.651 631.41 435.608 634.696 435.608 639.304V667.336H470.68V639.304C470.68 634.696 470.595 631.41 470.424 629.448C470.339 627.485 470.04 626.077 469.528 625.224C469.016 624.285 468.163 623.602 466.968 623.176V621.64H489.624V623.176Z" fill="#F9F8F4"/>
<path d="M266.024 657.948C270.752 655.918 276.239 658.071 278.339 662.776C280.431 667.481 278.354 672.999 273.68 675.16C270.599 676.585 266.99 676.233 264.231 674.248C261.472 672.271 260.001 668.953 260.369 665.581C260.744 662.202 262.898 659.29 266.024 657.948Z" fill="#8B72A7"/>
</svg>
