<svg width="446" height="92" viewBox="0 0 446 92" fill="none" xmlns="http://www.w3.org/2000/svg">
<path d="M35.2 2.43205H27.648C21.3333 2.51738 15.872 4.09605 11.264 7.16805C6.656 10.1547 4.26667 15.5734 4.096 23.4241H2.432V0.896049H80.768V23.4241H79.104C78.9333 15.6587 76.3307 10.2401 71.296 7.16805C66.3467 4.09605 61.056 2.51738 55.424 2.43205H47.872V78.5921C47.872 82.5174 48.6827 85.2907 50.304 86.9121C51.9253 88.5334 54.2293 89.3441 57.216 89.3441V91.0081H25.984V89.3441C28.9707 89.3441 31.232 88.5334 32.768 86.9121C34.3893 85.2907 35.2 82.5174 35.2 78.5921V2.43205ZM166.316 2.43205C164.268 2.85872 162.817 3.54138 161.964 4.48005C161.111 5.33339 160.556 6.74139 160.3 8.70406C160.129 10.6667 160.044 13.9521 160.044 18.5601V73.6001C160.044 78.0374 160.087 81.1094 160.172 82.8161C160.343 84.4374 160.855 85.8027 161.708 86.9121C162.647 87.9361 164.183 88.7467 166.316 89.3441V91.0081H143.66V89.3441C144.855 88.9174 145.708 88.2347 146.22 87.2961C146.732 86.2721 147.031 84.7787 147.116 82.8161C147.287 80.8534 147.372 77.7814 147.372 73.6001V48.8961H112.3V73.6001C112.3 78.3787 112.343 81.7067 112.428 83.5841C112.599 85.4614 112.897 86.7841 113.324 87.5521C113.836 88.3201 114.732 88.9174 116.012 89.3441V91.0081H93.228V89.3441C95.532 88.7467 97.1107 88.0214 97.964 87.1681C98.8173 86.3147 99.2867 85.0774 99.372 83.4561C99.5427 81.8347 99.628 78.5494 99.628 73.6001V18.5601C99.628 14.2081 99.5 11.0507 99.244 9.08805C99.0733 7.12538 98.5187 5.63205 97.58 4.60806C96.7267 3.49872 95.276 2.77339 93.228 2.43205V0.896049H116.012V2.43205C114.817 2.85872 113.964 3.54138 113.452 4.48005C112.94 5.33339 112.599 6.74139 112.428 8.70406C112.343 10.6667 112.3 13.9521 112.3 18.5601V46.5921H147.372V18.5601C147.372 13.9521 147.287 10.6667 147.116 8.70406C147.031 6.74139 146.732 5.33339 146.22 4.48005C145.708 3.54138 144.855 2.85872 143.66 2.43205V0.896049H166.316V2.43205ZM195.768 46.5921C195.768 61.2694 197.645 71.9361 201.4 78.5921C205.24 85.2481 210.659 89.0881 217.656 90.1121V91.9041C209.72 91.1361 203.021 88.7041 197.56 84.6081C192.099 80.5121 188.003 75.1787 185.272 68.6081C182.541 62.0374 181.176 54.6987 181.176 46.5921C181.176 38.4854 182.541 31.0614 185.272 24.3201C188.003 17.5787 192.099 12.0747 197.56 7.80805C203.021 3.45605 209.72 0.853386 217.656 5.34058e-05V1.92005C210.744 3.02939 205.368 7.08272 201.528 14.0801C197.688 20.9921 195.768 31.8294 195.768 46.5921ZM264.376 46.5921C264.376 54.6987 263.011 62.0374 260.28 68.6081C257.549 75.1787 253.411 80.5121 247.864 84.6081C242.403 88.7041 235.661 91.1361 227.64 91.9041V90.1121C234.637 89.0881 240.013 85.2907 243.768 78.7201C247.523 72.0641 249.4 61.3547 249.4 46.5921C249.4 31.8294 247.48 20.9921 243.64 14.0801C239.885 7.16805 234.552 3.07205 227.64 1.79205V5.34058e-05C235.576 0.768054 242.317 3.32805 247.864 7.68005C253.411 11.9467 257.549 17.4934 260.28 24.3201C263.011 31.0614 264.376 38.4854 264.376 46.5921ZM311.775 2.43205H304.223C297.908 2.51738 292.447 4.09605 287.839 7.16805C283.231 10.1547 280.842 15.5734 280.671 23.4241H279.007V0.896049H357.343V23.4241H355.679C355.508 15.6587 352.906 10.2401 347.871 7.16805C342.922 4.09605 337.631 2.51738 331.999 2.43205H324.447V78.5921C324.447 82.5174 325.258 85.2907 326.879 86.9121C328.5 88.5334 330.804 89.3441 333.791 89.3441V91.0081H302.559V89.3441C305.546 89.3441 307.807 88.5334 309.343 86.9121C310.964 85.2907 311.775 82.5174 311.775 78.5921V2.43205ZM442.891 2.43205C440.843 2.85872 439.392 3.54138 438.539 4.48005C437.686 5.33339 437.131 6.74139 436.875 8.70406C436.704 10.6667 436.619 13.9521 436.619 18.5601V73.6001C436.619 78.0374 436.662 81.1094 436.747 82.8161C436.918 84.4374 437.43 85.8027 438.283 86.9121C439.222 87.9361 440.758 88.7467 442.891 89.3441V91.0081H420.235V89.3441C421.43 88.9174 422.283 88.2347 422.795 87.2961C423.307 86.2721 423.606 84.7787 423.691 82.8161C423.862 80.8534 423.947 77.7814 423.947 73.6001V48.8961H388.875V73.6001C388.875 78.3787 388.918 81.7067 389.003 83.5841C389.174 85.4614 389.472 86.7841 389.899 87.5521C390.411 88.3201 391.307 88.9174 392.587 89.3441V91.0081H369.803V89.3441C372.107 88.7467 373.686 88.0214 374.539 87.1681C375.392 86.3147 375.862 85.0774 375.947 83.4561C376.118 81.8347 376.203 78.5494 376.203 73.6001V18.5601C376.203 14.2081 376.075 11.0507 375.819 9.08805C375.648 7.12538 375.094 5.63205 374.155 4.60806C373.302 3.49872 371.851 2.77339 369.803 2.43205V0.896049H392.587V2.43205C391.392 2.85872 390.539 3.54138 390.027 4.48005C389.515 5.33339 389.174 6.74139 389.003 8.70406C388.918 10.6667 388.875 13.9521 388.875 18.5601V46.5921H423.947V18.5601C423.947 13.9521 423.862 10.6667 423.691 8.70406C423.606 6.74139 423.307 5.33339 422.795 4.48005C422.283 3.54138 421.43 2.85872 420.235 2.43205V0.896049H442.891V2.43205Z" fill="#2D3139"/>
<path d="M219.291 37.2048C224.019 35.1741 229.506 37.3274 231.606 42.0326C233.698 46.7378 231.621 52.2554 226.947 54.4164C223.866 55.8417 220.257 55.4892 217.498 53.5044C214.739 51.5273 213.268 48.2092 213.636 44.8374C214.011 41.4579 216.165 38.5459 219.291 37.2048Z" fill="#8B72A7"/>
</svg>
