<svg width="446" height="596" viewBox="0 0 446 596" fill="none" xmlns="http://www.w3.org/2000/svg">
<circle cx="248.743" cy="134.661" r="134.661" fill="#3A7D7A"/>
<circle cx="26.5073" cy="26.5073" r="26.5073" transform="matrix(1 0 0 -1 234.653 143.724)" fill="#F7F6F4"/>
<path d="M240.099 83.1536C262 69.1197 294.863 68.573 319.811 73.9713C383.905 85.0048 428.393 139.848 440.115 201.554C443.542 219.581 442.808 238.935 442.808 257.232L442.796 319.168L442.804 442.224C442.804 451.577 442.856 461.062 442.889 470.558H231.183L231.187 407.828L231.153 361.935C231.146 353.947 231.072 345.877 231.168 337.936C231.546 306.552 239.354 277.957 255.951 251.213C267.156 233.159 293.22 193.894 284.172 172.114C282.114 167.032 278.078 163.003 272.992 160.955C266.767 158.483 260.073 158.977 253.546 158.95C226.284 158.836 203.748 164.994 178.778 175.67C109.836 205.149 50.5593 252.94 15.9083 320.322C10.4219 330.991 6.86052 339.561 2.36035 350.612C3.66508 332.726 12.3456 309.584 19.6071 293.366C52.324 220.299 118.836 168.408 189.043 133.675C194.523 130.964 200.086 128.383 205.083 124.839C212.411 119.782 214.603 112.284 218.877 104.943C224.122 96.0992 231.397 88.6303 240.099 83.1536ZM279.398 108.857C272.82 108.909 261.083 108.492 255.133 109.046C248.561 111.447 243.996 118.843 238.978 124.105C244.235 124.129 258.542 124.492 263.009 123.722C270.139 119.939 273.986 114.834 279.398 108.857Z" fill="#2E3036"/>
<path d="M319.811 73.9714C383.905 85.0049 428.394 139.848 440.115 201.554C443.543 219.582 442.809 238.935 442.809 257.232L442.796 319.168L442.805 442.224C442.805 451.577 442.856 461.062 442.889 470.558H394.914C381.09 447.049 367.496 423.408 354.133 399.636C327.158 351.011 301.349 305.648 311.119 247.792C316.913 213.481 335.025 189.518 339.719 154.96C343.575 126.566 337.161 96.9714 319.811 73.9714Z" fill="#8B72A7"/>
<path d="M35.2 505.79H27.648C21.3333 505.876 15.872 507.454 11.264 510.526C6.656 513.513 4.26667 518.932 4.096 526.782H2.432V504.254H80.768V526.782H79.104C78.9333 519.017 76.3307 513.598 71.296 510.526C66.3467 507.454 61.056 505.876 55.424 505.79H47.872V581.95C47.872 585.876 48.6827 588.649 50.304 590.27C51.9253 591.892 54.2293 592.702 57.216 592.702V594.366H25.984V592.702C28.9707 592.702 31.232 591.892 32.768 590.27C34.3893 588.649 35.2 585.876 35.2 581.95V505.79ZM166.316 505.79C164.268 506.217 162.817 506.9 161.964 507.838C161.111 508.692 160.556 510.1 160.3 512.062C160.129 514.025 160.044 517.31 160.044 521.918V576.958C160.044 581.396 160.087 584.468 160.172 586.174C160.343 587.796 160.855 589.161 161.708 590.27C162.647 591.294 164.183 592.105 166.316 592.702V594.366H143.66V592.702C144.855 592.276 145.708 591.593 146.22 590.654C146.732 589.63 147.031 588.137 147.116 586.174C147.287 584.212 147.372 581.14 147.372 576.958V552.254H112.3V576.958C112.3 581.737 112.343 585.065 112.428 586.942C112.599 588.82 112.897 590.142 113.324 590.91C113.836 591.678 114.732 592.276 116.012 592.702V594.366H93.228V592.702C95.532 592.105 97.1107 591.38 97.964 590.526C98.8173 589.673 99.2867 588.436 99.372 586.814C99.5427 585.193 99.628 581.908 99.628 576.958V521.918C99.628 517.566 99.5 514.409 99.244 512.446C99.0733 510.484 98.5187 508.99 97.58 507.966C96.7267 506.857 95.276 506.132 93.228 505.79V504.254H116.012V505.79C114.817 506.217 113.964 506.9 113.452 507.838C112.94 508.692 112.599 510.1 112.428 512.062C112.343 514.025 112.3 517.31 112.3 521.918V549.95H147.372V521.918C147.372 517.31 147.287 514.025 147.116 512.062C147.031 510.1 146.732 508.692 146.22 507.838C145.708 506.9 144.855 506.217 143.66 505.79V504.254H166.316V505.79ZM195.768 549.95C195.768 564.628 197.645 575.294 201.4 581.95C205.24 588.606 210.659 592.446 217.656 593.47V595.262C209.72 594.494 203.021 592.062 197.56 587.966C192.099 583.87 188.003 578.537 185.272 571.966C182.541 565.396 181.176 558.057 181.176 549.95C181.176 541.844 182.541 534.42 185.272 527.678C188.003 520.937 192.099 515.433 197.56 511.166C203.021 506.814 209.72 504.212 217.656 503.358V505.278C210.744 506.388 205.368 510.441 201.528 517.438C197.688 524.35 195.768 535.188 195.768 549.95ZM264.376 549.95C264.376 558.057 263.011 565.396 260.28 571.966C257.549 578.537 253.411 583.87 247.864 587.966C242.403 592.062 235.661 594.494 227.64 595.262V593.47C234.637 592.446 240.013 588.649 243.768 582.078C247.523 575.422 249.4 564.713 249.4 549.95C249.4 535.188 247.48 524.35 243.64 517.438C239.885 510.526 234.552 506.43 227.64 505.15V503.358C235.576 504.126 242.317 506.686 247.864 511.038C253.411 515.305 257.549 520.852 260.28 527.678C263.011 534.42 264.376 541.844 264.376 549.95ZM311.775 505.79H304.223C297.908 505.876 292.447 507.454 287.839 510.526C283.231 513.513 280.842 518.932 280.671 526.782H279.007V504.254H357.343V526.782H355.679C355.508 519.017 352.906 513.598 347.871 510.526C342.922 507.454 337.631 505.876 331.999 505.79H324.447V581.95C324.447 585.876 325.258 588.649 326.879 590.27C328.5 591.892 330.804 592.702 333.791 592.702V594.366H302.559V592.702C305.546 592.702 307.807 591.892 309.343 590.27C310.964 588.649 311.775 585.876 311.775 581.95V505.79ZM442.891 505.79C440.843 506.217 439.392 506.9 438.539 507.838C437.686 508.692 437.131 510.1 436.875 512.062C436.704 514.025 436.619 517.31 436.619 521.918V576.958C436.619 581.396 436.662 584.468 436.747 586.174C436.918 587.796 437.43 589.161 438.283 590.27C439.222 591.294 440.758 592.105 442.891 592.702V594.366H420.235V592.702C421.43 592.276 422.283 591.593 422.795 590.654C423.307 589.63 423.606 588.137 423.691 586.174C423.862 584.212 423.947 581.14 423.947 576.958V552.254H388.875V576.958C388.875 581.737 388.918 585.065 389.003 586.942C389.174 588.82 389.472 590.142 389.899 590.91C390.411 591.678 391.307 592.276 392.587 592.702V594.366H369.803V592.702C372.107 592.105 373.686 591.38 374.539 590.526C375.392 589.673 375.862 588.436 375.947 586.814C376.118 585.193 376.203 581.908 376.203 576.958V521.918C376.203 517.566 376.075 514.409 375.819 512.446C375.648 510.484 375.094 508.99 374.155 507.966C373.302 506.857 371.851 506.132 369.803 505.79V504.254H392.587V505.79C391.392 506.217 390.539 506.9 390.027 507.838C389.515 508.692 389.174 510.1 389.003 512.062C388.918 514.025 388.875 517.31 388.875 521.918V549.95H423.947V521.918C423.947 517.31 423.862 514.025 423.691 512.062C423.606 510.1 423.307 508.692 422.795 507.838C422.283 506.9 421.43 506.217 420.235 505.79V504.254H442.891V505.79Z" fill="#2D3139"/>
<path d="M219.291 540.563C224.019 538.532 229.506 540.686 231.606 545.391C233.698 550.096 231.621 555.614 226.947 557.775C223.866 559.2 220.257 558.848 217.498 556.863C214.739 554.886 213.268 551.568 213.636 548.196C214.011 544.816 216.165 541.904 219.291 540.563Z" fill="#8B72A7"/>
</svg>
